<?xml version="1.0" encoding="utf-8"?>
<!-- Generator: Adobe Illustrator 20.1.0, SVG Export Plug-In . SVG Version: 6.00 Build 0)  -->
<svg version="1.1" id="Layer_1" xmlns="http://www.w3.org/2000/svg" xmlns:xlink="http://www.w3.org/1999/xlink" x="0px" y="0px"
	 width="64px" height="64px" viewBox="0 0 64 64" style="enable-background:new 0 0 64 64;" xml:space="preserve">
	<defs>
    <linearGradient id="gradient1" gradientUnits="userSpaceOnUse" x1="52.0976" y1="33.7801" x2="52.0976" y2="-1.9525">
    	<stop  offset="0.2809" style="stop-color:#B00000"/>
    	<stop  offset="0.6685" style="stop-color:#FE1A1A"/>
    	<stop  offset="0.8876" style="stop-color:#FE2D2D"/>
    	<stop  offset="1" style="stop-color:#FF2A2A"/>
	  </linearGradient>
	  <linearGradient id="gradient2" gradientUnits="userSpaceOnUse" x1="46.9877" y1="33.7801" x2="46.9877" y2="-1.9525">
    	<stop  offset="0.2809" style="stop-color:#B00000"/>
    	<stop  offset="0.6685" style="stop-color:#FE1A1A"/>
    	<stop  offset="0.8876" style="stop-color:#FE2D2D"/>
    	<stop  offset="1" style="stop-color:#FF2A2A"/>
	  </linearGradient>
	  <linearGradient id="gradient3" gradientUnits="userSpaceOnUse" x1="57.4685" y1="33.7801" x2="57.4685" y2="-1.9525">
    	<stop  offset="0.2809" style="stop-color:#B00000"/>
    	<stop  offset="0.6685" style="stop-color:#FE1A1A"/>
    	<stop  offset="0.8876" style="stop-color:#FE2D2D"/>
    	<stop  offset="1" style="stop-color:#FF2A2A"/>
	  </linearGradient>
	  <linearGradient id="gradient4" gradientUnits="userSpaceOnUse" x1="11.902" y1="33.7801" x2="11.902" y2="-1.9525">
		  <stop  offset="0.2809" style="stop-color:#B00000"/>
    	<stop  offset="0.6685" style="stop-color:#FE1A1A"/>
    	<stop  offset="0.8876" style="stop-color:#FE2D2D"/>
    	<stop  offset="1" style="stop-color:#FF2A2A"/>
	  </linearGradient>
	  <linearGradient id="gradient5" gradientUnits="userSpaceOnUse" x1="17.0123" y1="33.7801" x2="17.0123" y2="-1.9525">
    	<stop  offset="0.2809" style="stop-color:#B00000"/>
    	<stop  offset="0.6685" style="stop-color:#FE1A1A"/>
    	<stop  offset="0.8876" style="stop-color:#FE2D2D"/>
    	<stop  offset="1" style="stop-color:#FF2A2A"/>
	  </linearGradient>
	  <linearGradient id="gradient6" gradientUnits="userSpaceOnUse" x1="6.5315" y1="33.7801" x2="6.5315" y2="-1.9525">
    	<stop  offset="0.2809" style="stop-color:#B00000"/>
    	<stop  offset="0.6685" style="stop-color:#FE1A1A"/>
    	<stop  offset="0.8876" style="stop-color:#FE2D2D"/>
    	<stop  offset="1" style="stop-color:#FF2A2A"/>
	  </linearGradient>
  </defs>
  <style type="text/css">
  	.st0{ fill:#9E9E9E; stroke:#9E9E9E; stroke-width:3; }
  	.st1{ fill:url(#gradient1); }
  	.st2{ fill:url(#gradient2); }
  	.st3{ fill:url(#gradient3); }
  	.st4{ fill:url(#gradient4); }
  	.st5{ fill:url(#gradient5); }
  	.st6{ fill:url(#gradient6); }
  </style>
  <g class="st0" transform="scale(1.65) translate(8.5, 8)">
    <!-- taken from img/pde/alert.svg-->   
    <circle r="2.25" cx="11" cy="3.5"/>
  	<path d="M3,12.5 C5,3 9,7 13,5 S20,0 20,13" transform="rotate(87 0 10) translate(-6.85,-13)"/>    
    <path d="M3,12.5 C5,3 9,7 13,5 S20,0 20,13" transform="rotate(93 0 10) scale(1,-1) translate(-8,-11)"/>
    <path stroke-linecap="round" d="M0 22 Q1.5 24 3 22" transform="translate(9.5,3.8)"/>
  </g>
	<path class="st1" d="M56.4,24.4c-0.7,0-1.3-0.4-1.5-1c-1.8-4.3-4.6-8.2-8.1-11.3c-0.7-0.6-0.8-1.7-0.2-2.4c0.6-0.7,1.7-0.8,2.4-0.2
		c3.9,3.4,7.1,7.8,9,12.6c0.4,0.9-0.1,1.8-0.9,2.2C56.8,24.4,56.6,24.4,56.4,24.4z"/>
	<path class="st2" d="M50.3,26.9c-0.7,0-1.3-0.4-1.5-1c-1.4-3.3-3.5-6.3-6.2-8.6c-0.7-0.6-0.8-1.7-0.2-2.4c0.6-0.7,1.7-0.8,2.4-0.2
		c3.1,2.7,5.5,6.1,7.1,9.9c0.4,0.9-0.1,1.8-0.9,2.2C50.7,26.8,50.5,26.9,50.3,26.9z"/>
	<path class="st3" d="M62.3,21.4c-0.7,0-1.3-0.4-1.5-1c-2-4.9-5.2-9.4-9.3-12.9c-0.7-0.6-0.8-1.7-0.2-2.4C52,4.5,53,4.4,53.7,5
		c4.4,3.8,7.9,8.7,10.2,14.1c0.4,0.9-0.1,1.8-0.9,2.2C62.8,21.4,62.5,21.4,62.3,21.4z"/>
	<path class="st4" d="M7.6,24.4c-0.2,0-0.4,0-0.6-0.1c-0.9-0.4-1.3-1.3-0.9-2.2c2-4.8,5.1-9.2,9-12.6c0.7-0.6,1.8-0.5,2.4,0.2
		c0.6,0.7,0.5,1.8-0.2,2.4c-3.5,3.1-6.4,7-8.1,11.3C8.9,24,8.3,24.4,7.6,24.4z"/>
	<path class="st5" d="M13.7,26.9c-0.2,0-0.4,0-0.6-0.1c-0.9-0.4-1.3-1.3-0.9-2.2c1.5-3.8,4-7.2,7.1-9.9c0.7-0.6,1.8-0.5,2.4,0.2
		c0.6,0.7,0.5,1.8-0.2,2.4c-2.7,2.3-4.8,5.3-6.2,8.6C15,26.5,14.4,26.9,13.7,26.9z"/>
	<path class="st6" d="M1.7,21.4c-0.2,0-0.4,0-0.6-0.1C0.2,21-0.2,20,0.1,19.1C2.3,13.7,5.9,8.8,10.3,5C11,4.4,12,4.5,12.7,5.2
		c0.6,0.7,0.5,1.8-0.2,2.4c-4,3.5-7.2,8-9.3,12.9C3,21,2.3,21.4,1.7,21.4z"/>
</svg>
