<?xml version="1.0" encoding="utf-8"?>
<!-- Generator: Adobe Illustrator 19.0.1, SVG Export Plug-In . SVG Version: 6.00 Build 0)  -->
<!DOCTYPE svg PUBLIC "-//W3C//DTD SVG 1.1//EN" "http://www.w3.org/Graphics/SVG/1.1/DTD/svg11.dtd">
<svg version="1.1" id="Layer_1" xmlns="http://www.w3.org/2000/svg" xmlns:xlink="http://www.w3.org/1999/xlink" x="0px" y="0px"
	 width="121px" height="100px" viewBox="0 0 121 100" style="enable-background:new 0 0 121 100;" xml:space="preserve">
  <defs>
  	<linearGradient id="gradient" gradientUnits="userSpaceOnUse" x1="60.5" y1="130.7753" x2="60.5" y2="18.6673">
	    <stop  offset="0.5" style="stop-color:#FF2A2A"/>
	    <stop  offset="1" style="stop-color:#ff7941"/>
		</linearGradient>
  </defs>
  <style type="text/css">
  	.st0{ fill:#2f2f32; }
    .st1{ fill:url(#gradient); }
  </style>
	<path class="st1" d="M120.8,50L87.2,16.4C78.1,6.3,64.9,0,50.2,0c-27.6,0-50,22.4-50,50s22.4,50,50,50c14.4,0,27.5-6.1,36.6-15.9
		c0.1-0.1,0.1-0.1,0.2-0.2L120.8,50z"/>
	<path class="st0" d="M94.4,49.4C94.4,25,74.6,5.1,50.2,5.1S5.9,25,5.9,49.4s19.9,44.3,44.3,44.3S94.4,73.8,94.4,49.4z"/>
  <g class="st1">
    <path d="M58.4,51.3c1.2-2.9,1-6.4-1-9.1c-1.5-2.1-3.7-3.3-6.1-3.7c-1.2-0.2-2.5-0.1-3.7,0.2l4,5.5
	  	c1.1,1.5,0.8,3.7-0.8,4.8c-0.8,0.6-1.7,0.8-2.6,0.6c-0.9-0.1-1.7-0.6-2.2-1.4l-4-5.5c-2,3.1-1.9,7.2,0.4,10.4
	  	c1.5,2.1,3.7,3.3,6.1,3.7c0.8,0.1,1.5,0.1,2.3,0.1l12.8,17.6c0.8,1.1,1.9,1.7,3.1,1.9s2.5-0.1,3.5-0.9c2.1-1.5,2.6-4.5,1-6.6
	  	L58.4,51.3z M68.1,70.4c1,0.2,1.7,1.1,1.5,2.1c-0.2,1-1.1,1.7-2.1,1.5S65.8,73,66,72C66.1,70.9,67.1,70.3,68.1,70.4z"/>
	  <path d="M61.7,50.3c0,0.1-0.1,0.3-0.1,0.4C61.6,50.6,61.6,50.4,61.7,50.3z"/>
	  <path d="M60.1,41c0.1,0.1,0.1,0.2,0.2,0.3C60.2,41.2,60.1,41.1,60.1,41z"/>
	  <path d="M61.8,49.5c0,0.2-0.1,0.5-0.1,0.7c0.2-0.8,0.3-1.7,0.3-2.6c0-2.3-0.6-4.4-1.7-6.2
	  	C61.7,43.7,62.3,46.5,61.8,49.5z"/>
	  <path d="M59.9,40.7C59.9,40.7,59.9,40.8,59.9,40.7C59.9,40.8,59.9,40.7,59.9,40.7z"/>
	  <path d="M73.6,58.5l1.9-5.7l-6.4-3c0.1-0.7,0.1-1.5,0.1-2.2c0-0.7,0-1.4-0.1-2.1l6.4-3l-1.9-5.7L66.7,38
	  	c-0.7-1.3-1.6-2.4-2.5-3.5l3.4-6.2l-4.9-3.5l-4.8,5.1c-1.3-0.6-2.7-1.1-4.1-1.4l-0.9-7h-6l-0.9,7c-1.4,0.3-2.8,0.7-4.1,1.3
	  	l-4.8-5.1l-4.9,3.5l3.4,6.2c-1,1.1-1.8,2.2-2.5,3.5l-6.9-1.3l-1.9,5.7l6.4,3c-0.1,0.7-0.1,1.5-0.1,2.2c0,0.7,0,1.4,0.1,2.1l-6.4,3
	  	l1.9,5.7l6.9-1.3c0.7,1.3,1.6,2.4,2.5,3.5l-3.4,6.2l4.9,3.5l4.8-5.1c1.3,0.6,2.7,1.1,4.1,1.4l0.9,7h6l0.9-7c0.2,0,0.4-0.1,0.6-0.1
	  	l-4.8-6.6c-0.5,0-1.1-0.1-1.6-0.1c-6.7-1-11.2-7.3-10.2-14c1-6.7,7.3-11.2,14-10.2c3.5,0.5,6.4,2.5,8.2,5.2c0,0,0,0,0.1,0.1
	  	c0.1,0.1,0.1,0.2,0.1,0.2c0.1,0.1,0.1,0.2,0.2,0.3c0,0,0,0,0,0c1.1,1.8,1.7,3.9,1.7,6.2c0,0.9-0.1,1.8-0.3,2.6c0,0,0,0.1,0,0.1
	  	c0,0.1-0.1,0.3-0.1,0.4c0,0.1,0,0.1-0.1,0.2l4.9,6.7c0.1-0.1,0.2-0.3,0.3-0.4L73.6,58.5z"/>
  </g>
</svg>
