<?xml version="1.0" encoding="utf-8"?>
<!-- Generator: Adobe Illustrator 19.0.1, SVG Export Plug-In . SVG Version: 6.00 Build 0)  -->
<!DOCTYPE svg PUBLIC "-//W3C//DTD SVG 1.1//EN" "http://www.w3.org/Graphics/SVG/1.1/DTD/svg11.dtd">
<svg version="1.1" id="Layer_1" xmlns="http://www.w3.org/2000/svg" xmlns:xlink="http://www.w3.org/1999/xlink" x="0px" y="0px"
	 width="121px" height="100px" viewBox="0 0 121 100" style="enable-background:new 0 0 100 100;" xml:space="preserve">
  <defs>
  	<linearGradient id="gradient1" gradientUnits="userSpaceOnUse" x1="60.5" y1="130.7753" x2="60.5" y2="18.6673">
	    <stop  offset="0.5" style="stop-color:#FF2A2A"/>
	    <stop  offset="1" style="stop-color:#ff7941"/>
		</linearGradient>
    <linearGradient id="gradient2" x1="0%" y1="0%" x2="100%" y2="0%">
      <stop offset="0%"   stop-color="#FF7941"/>
      <stop offset="100%" stop-color="#FF2A2A"/>
    </linearGradient>
  </defs>
  <style type="text/css">
  	.fill0{ fill:url(#gradient1); }
  	.fill1{ fill:#2f2f32; }
    .st0{ stroke:#FF7941; }
    .st1{ stroke:#FF2A2A; }
    .str-fill{ stroke:url(#gradient2); fill:url(#gradient2); }
    .stroke-w{ stroke-width:3; }
  </style>
  <path class="fill0" d="M120.8,50L87.2,16.4C78.1,6.3,64.9,0,50.2,0c-27.6,0-50,22.4-50,50s22.4,50,50,50c14.4,0,27.5-6.1,36.6-15.9
			c0.1-0.1,0.1-0.1,0.2-0.2L120.8,50z"/>
	<circle class="fill1" r="44.2" cx="50.15" cy="50"/>
  <g class="stroke-w" transform="scale(2.25) translate(11, 8)">
    <!-- taken from img/pde/alert.svg-->   
    <circle class="fill1 st0" r="2.25" cx="11" cy="3.5"/>
  	<path class="str-fill" d="M3,12.5 C5,3 9,7 13,5 S20,0 20,13" transform="rotate(87 0 10) translate(-6.85,-13)"/>    
    <path class="str-fill" d="M3,12.5 C5,3 9,7 13,5 S20,0 20,13" transform="rotate(93 0 10) scale(1,-1) translate(-8,-11)"/>
    <path id="bell" class="fill1 st1" stroke-linecap="round" d="M0 22 Q1.5 24 3 22" transform="translate(9.5,3.8)"/>
  </g>
</svg>
