<?xml version="1.0" encoding="utf-8"?>
<!-- Generator: Adobe Illustrator 19.0.1, SVG Export Plug-In . SVG Version: 6.00 Build 0)  -->
<!DOCTYPE svg PUBLIC "-//W3C//DTD SVG 1.1//EN" "http://www.w3.org/Graphics/SVG/1.1/DTD/svg11.dtd">
<svg version="1.1" id="Layer_1" xmlns="http://www.w3.org/2000/svg" xmlns:xlink="http://www.w3.org/1999/xlink" x="0px" y="0px"
	 width="121px" height="100px" viewBox="0 0 121 100" style="enable-background:new 0 0 121 100;" xml:space="preserve">
  <defs>
  	<linearGradient id="gradient" gradientUnits="userSpaceOnUse" x1="60.5" y1="130.7753" x2="60.5" y2="18.6673">
  	  <stop  offset="0.5" style="stop-color:#FF2A2A"/>
  	  <stop  offset="1" style="stop-color:#ff7941"/>
  	</linearGradient>
  </defs>
  <style type="text/css">
  	.st0{ fill:url(#gradient); }
  	.st1{ fill:#2f2f32; }
  </style>
	<path class="st0" d="M120.8,50L87.2,16.4C78.1,6.3,64.9,0,50.2,0c-27.6,0-50,22.4-50,50s22.4,50,50,50c14.4,0,27.5-6.1,36.6-15.9
		c0.1-0.1,0.1-0.1,0.2-0.2L120.8,50z"/>
	<path class="st1" d="M94.1,50c0-24.4-19.9-44.3-44.3-44.3S5.6,25.6,5.6,50s19.9,44.3,44.3,44.3S94.1,74.4,94.1,50z"/>
	<g class="st0">
		<path d="M78.3,65.9H25.9V30.5c0-1.5-1.2-2.8-2.8-2.8c-1.5,0-2.8,1.2-2.8,2.8v38.1c0,1.5,1.2,2.8,2.8,2.8h55.2
			c1.5,0,2.8-1.2,2.8-2.8S79.8,65.9,78.3,65.9z"/>
		<polygon points="78.2,63.1 78.5,49 63.4,28.3 47.5,49.5 36.3,38.7 28.6,43.1 28.6,63.1 			"/>
	</g>
</svg>
