<?xml version="1.0" encoding="utf-8"?>
<!-- Generator: Adobe Illustrator 20.1.0, SVG Export Plug-In . SVG Version: 6.00 Build 0)  -->
<svg version="1.1" id="Layer_1" xmlns="http://www.w3.org/2000/svg" xmlns:xlink="http://www.w3.org/1999/xlink" x="0px" y="0px"
	 width="16px" height="17px" viewBox="0 0 16 17" style="enable-background:new 0 0 16 17;" xml:space="preserve">
  <defs>
		<linearGradient id="gradient" gradientUnits="userSpaceOnUse" x1="3.9" y1="-5.2803" x2="3.9" y2="19.213" gradientTransform="matrix(1 0 0 -1 0 18.289)">
		  <stop  offset="0.2809" style="stop-color:#B00000"/>
	    <stop  offset="0.6685" style="stop-color:#FE1A1A"/>
	    <stop  offset="0.8876" style="stop-color:#FE2D2D"/>
	    <stop  offset="1" style="stop-color:#FF2A2A"/>
		</linearGradient>
  </defs>
  <style type="text/css">
  	.st0{ fill:url(#gradient); }
  </style>
	<g class="st0">
		<path  d="M5.9,7H1.8C1,7,0.4,6.4,0.4,5.6V1.5c0-0.8,0.6-1.4,1.4-1.4H6c0.8,0,1.4,0.6,1.4,1.4v4.1C7.3,6.4,6.7,7,5.9,7z"/>
		<path d="M14.2,7H10C9.3,7,8.7,6.4,8.7,5.6V1.5c0-0.8,0.6-1.4,1.4-1.4h4.2c0.8,0,1.4,0.6,1.4,1.4v4.1
			C15.6,6.4,15,7,14.2,7z"/>
		<path d="M5.9,15.1H1.8c-0.8,0-1.4-0.6-1.4-1.4V9.6c0-0.8,0.6-1.4,1.4-1.4H6c0.8,0,1.4,0.6,1.4,1.4v4.2
			C7.3,14.5,6.7,15.1,5.9,15.1z"/>
		<path d="M14.2,15.1H10c-0.8,0-1.4-0.6-1.4-1.4V9.6c0-0.8,0.6-1.4,1.4-1.4h4.2c0.8,0,1.4,0.6,1.4,1.4v4.2
			C15.6,14.5,15,15.1,14.2,15.1z"/>
	</g>
</svg>
