<?xml version="1.0" encoding="UTF-8"?>
<svg width="20px" height="20px" viewBox="0 0 20 20" version="1.1" xmlns="http://www.w3.org/2000/svg" xmlns:xlink="http://www.w3.org/1999/xlink">
    <title>Compass Hover</title>
    <desc>A compass icon.</desc>
    <defs></defs>
    <style type="text/css">
        .st0{ fill:#ff7941; }
        .st1{ fill:none; stroke:#ff7941; stroke-width:2; }
    </style>
    <g id="Page-1" stroke="none" stroke-width="1" fill="none" fill-rule="evenodd">
        <g id="PDE" transform="translate(-1007.000000, -157.000000)">
            <g id="Compass-Hover" class="st0" transform="translate(1007.000000, 157.000000)">
                <rect id="N" x="9.5" y="0" width="1" height="4" rx="1"></rect>
                <rect id="E" x="9.5" y="0" width="1" height="4" rx="1" transform="translate(10.000000, 10.000000) rotate(90.000000) translate(-10.000000, -10.000000)" ></rect>
                <rect id="S" x="9.5" y="0" width="1" height="4" rx="1" transform="translate(0, 16.000000)" ></rect>
                <rect id="W" x="9.5" y="0" width="1" height="4" rx="1" transform="translate(0.000000, 10.000000) rotate(-90.000000) translate(-10.000000, 0.000000)"></rect>
                <rect id="SW" x="9.5" y="0" width="1" height="4" rx="1" transform="rotate(45.000000) translate(4.000000, 6.000000)"></rect>
                <rect id="NE" x="9.5" y="0" width="1" height="4" rx="1" transform="rotate(45.000000) translate(4.000000, -10.000000)"></rect>
                <rect id="NW" x="9.5" y="0" width="1" height="4" rx="1" transform="rotate(-45.000000) translate(-10.00000, 4.200000)"></rect>
                <rect id="SE" x="9.5" y="0" width="1" height="4" rx="1" transform="rotate(-45.000000) translate(-10.000000, 20.100000)"></rect>
                <polygon id="top-left" points="-5,-5 -2,0 0,-2" transform="rotate(10) translate(12.25, 8.75)"/>
                <polygon id="bottom-right" points="5,5 2,0 0,2" transform="rotate(10) translate(11, 7.5)"/>
            </g>
            <g id="Border" transform="translate(1007.000000, 157.000000)">
                <circle class="st1" cx="10" cy="10" r="9"></circle>
            </g>
        </g>
    </g>
</svg> 