<?xml version="1.0" encoding="UTF-8"?>
<svg width="17px" height="17px" viewBox="0 0 17 17" version="1.1" xmlns="http://www.w3.org/2000/svg" xmlns:xlink="http://www.w3.org/1999/xlink">
    <!-- Generator: Sketch 51.2 (57519) - http://www.bohemiancoding.com/sketch -->
    <title>Create</title>
    <desc>Created with Sketch.</desc>
    <defs></defs>
    <style type="text/css">
        .st0{ fill:#9E9E9E; }
    </style>
    <g id="Page-1" stroke="none" stroke-width="1" fill="none" fill-rule="evenodd" opacity="0.773660714">
        <g id="PDE" class="st0" transform="translate(-880.000000, -74.000000)">
            <path d="M890.563107,80.4232955 L896.227273,80.4232955 C896.654038,80.4232955 897,80.7616257 897,81.1789773 L897,83.4460227 C897,83.8633743 896.654038,84.2017045 896.227273,84.2017045 L890.563107,84.2017045 L890.563107,90 C890.563107,90.5522847 890.115392,91 889.563107,91 L887.539066,91 C886.986781,91 886.539066,90.5522847 886.539066,90 L886.539066,84.2017045 L880.772727,84.2017045 C880.345962,84.2017045 880,83.8633743 880,83.4460227 L880,81.1789773 C880,80.7616257 880.345962,80.4232955 880.772727,80.4232955 L886.539066,80.4232955 L886.539066,75 C886.539066,74.4477153 886.986781,74 887.539066,74 L889.563107,74 C890.115392,74 890.563107,74.4477153 890.563107,75 L890.563107,80.4232955 Z" id="Create"></path>
        </g>
    </g>
</svg> 