<?xml version="1.0" encoding="UTF-8"?>
<svg width="18px" height="18px" viewBox="0 0 18 18" version="1.1" xmlns="http://www.w3.org/2000/svg" xmlns:xlink="http://www.w3.org/1999/xlink">
    <!-- Generator: Sketch 51.2 (57519) - http://www.bohemiancoding.com/sketch -->
    <title>Save</title>
    <desc>Created with Sketch.</desc>
    <defs></defs>
    <g id="Page-1" stroke="none" stroke-width="1" fill="none" fill-rule="evenodd">
        <g id="PDE" transform="translate(-854.000000, -158.000000)">
            <g id="Save" transform="translate(854.000000, 158.000000)">
                <path d="M1,0 L12.8210806,-1.44328993e-15 C13.086297,-1.96312854e-15 13.340651,0.10535684 13.5281873,0.292893219 L17.7071068,4.47181266 C17.8946432,4.65934904 18,4.91370295 18,5.17891944 L18,17 C18,17.5522847 17.5522847,18 17,18 L1,18 C0.44771525,18 6.76353751e-17,17.5522847 0,17 L0,1 C-6.76353751e-17,0.44771525 0.44771525,1.01453063e-16 1,0 Z" id="Rectangle-8" fill="#B5B5B5"></path>
                <rect id="Rectangle-8" fill="#FFFFFF" x="3" y="10" width="12" height="4.36363636" rx="1"></rect>
                <rect id="Rectangle-8" fill="#FFFFFF" x="5" y="4" width="8" height="3.42857143" rx="1"></rect>
            </g>
        </g>
    </g>
</svg>