<?xml version="1.0" encoding="UTF-8"?>
<svg width="20px" height="20px" viewBox="0 0 20 20" version="1.1" xmlns="http://www.w3.org/2000/svg" xmlns:xlink="http://www.w3.org/1999/xlink">
    <title>Settings</title>
    <desc>A gear icon.</desc>
    <defs></defs>
    <style type="text/css">
        .st0{ fill:#9E9E9E; }
        .st1{ fill:none; stroke:#9E9E9E; stroke-width:4; }
    </style>
    <g id="Page-1" stroke="none" stroke-width="1" fill="none" fill-rule="evenodd">
        <g id="PDE" transform="translate(-1007.000000, -157.000000)">
            <g id="Settings" class="st0" transform="translate(1007.000000, 157.000000)">
                <rect id="N"  x="8" y="0" width="4" height="5" rx="1"></rect>
                <rect id="E"  x="8" y="0" width="4" height="5" rx="1" transform="translate(10.000000, 10.000000) rotate(90.000000) translate(-10.000000, -10.000000)" ></rect>
                <rect id="S"  x="8" y="0" width="4" height="5" rx="1" transform="translate(0, 15.000000)" ></rect>
                <rect id="W"  x="8" y="0" width="4" height="5" rx="1" transform="translate(0.000000, 10.000000) rotate(-90.000000) translate(-10.000000, 0.000000)"></rect>
                <rect id="SW" x="8" y="0" width="4" height="5" rx="1" transform="rotate(45.000000) translate(4.000000, 5.000000)"></rect>
                <rect id="NE" x="8" y="0" width="4" height="5" rx="1" transform="rotate(45.000000) translate(4.000000, -10.000000)"></rect>
                <rect id="NW" x="8" y="0" width="4" height="5" rx="1" transform="rotate(-45.000000) translate(-10.000000, 4.000000)"></rect>
                <rect id="SE" x="8" y="0" width="4" height="5" rx="1" transform="rotate(-45.000000) translate(-10.000000, 19.200000)"></rect>
            </g>
            <g id="Border" transform="translate(1007.000000, 157.000000)">
                <circle id="Oval" class="st1" cx="10" cy="10" r="5"></circle>
            </g>
        </g>
    </g>
</svg>