<?xml version="1.0" encoding="UTF-8"?>
<svg width="17px" height="16px" viewBox="0 0 17 16" version="1.1" xmlns="http://www.w3.org/2000/svg" xmlns:xlink="http://www.w3.org/1999/xlink">
    <!-- Generator: Sketch 51.2 (57519) - http://www.bohemiancoding.com/sketch -->
    <title>Share Blue</title>
    <desc>Created with Sketch.</desc>
    <defs></defs>
    <g id="Page-1" stroke="none" stroke-width="1" fill="none" fill-rule="evenodd">
        <g id="PDE" transform="translate(-695.000000, -159.000000)" fill="#4C4CE9">
            <g id="Share-Blue" transform="translate(704.000000, 167.000000) rotate(-90.000000) translate(-704.000000, -167.000000) translate(695.500000, 158.500000)">
                <path d="M11.3333333,10.1789474 L11.3333333,12.4526316 C11.3333333,12.8712053 11.1026921,13.2105263 10.8181818,13.2105263 L0.515151515,13.2105263 C0.230641189,13.2105263 0,12.8712053 0,12.4526316 L0,10.1789474 C0,9.76037366 0.230641189,9.42105263 0.515151515,9.42105263 L10.8181818,9.42105263 C11.1026921,9.42105263 11.3333333,9.76037366 11.3333333,10.1789474 Z" id="Rectangle-3" transform="translate(5.666667, 11.315789) rotate(45.000000) translate(-5.666667, -11.315789) "></path>
                <path d="M17,10.1789474 L17,12.4526316 C17,12.8712053 16.7693588,13.2105263 16.4848485,13.2105263 L6.18181818,13.2105263 C5.89730786,13.2105263 5.66666667,12.8712053 5.66666667,12.4526316 L5.66666667,10.1789474 C5.66666667,9.76037366 5.89730786,9.42105263 6.18181818,9.42105263 L16.4848485,9.42105263 C16.7693588,9.42105263 17,9.76037366 17,10.1789474 Z" id="Rectangle-3" transform="translate(11.333333, 11.315789) scale(-1, 1) rotate(45.000000) translate(-11.333333, -11.315789) "></path>
                <path d="M15.0428545,5.56052632 L15.0428545,7.59736842 C15.0428545,7.9723407 14.7845845,8.27631579 14.4659922,8.27631579 L2.92874468,8.27631579 C2.61015239,8.27631579 2.35188231,7.9723407 2.35188231,7.59736842 L2.35188231,5.56052632 C2.35188231,5.18555404 2.61015239,4.88157895 2.92874468,4.88157895 L14.4659922,4.88157895 C14.7845845,4.88157895 15.0428545,5.18555404 15.0428545,5.56052632 Z" id="Rectangle-3" transform="translate(8.697368, 6.578947) scale(-1, 1) rotate(90.000000) translate(-8.697368, -6.578947) "></path>
            </g>
        </g>
    </g>
</svg>