<?xml version="1.0" encoding="UTF-8"?>
<svg width="18px" height="16px" viewBox="0 0 18 16" version="1.1" xmlns="http://www.w3.org/2000/svg" xmlns:xlink="http://www.w3.org/1999/xlink">
    <!-- Generator: Sketch 51.2 (57519) - http://www.bohemiancoding.com/sketch -->
    <title>Share</title>
    <desc>Created with Sketch.</desc>
    <defs></defs>
    <style type="text/css">
        .st0{ fill:#9E9E9E; }
    </style>
    <g id="Page-1" stroke="none" stroke-width="1" fill="none" fill-rule="evenodd">
        <g id="PDE" class="st0" transform="translate(-694.000000, -159.000000)">
            <g id="Share" transform="translate(703.500000, 167.000000) rotate(-90.000000) translate(-703.500000, -167.000000) translate(695.000000, 158.000000)">
                <path d="M11.3333333,11.1789474 L11.3333333,13.4526316 C11.3333333,13.8712053 11.1026921,14.2105263 10.8181818,14.2105263 L0.515151515,14.2105263 C0.230641189,14.2105263 0,13.8712053 0,13.4526316 L0,11.1789474 C0,10.7603737 0.230641189,10.4210526 0.515151515,10.4210526 L10.8181818,10.4210526 C11.1026921,10.4210526 11.3333333,10.7603737 11.3333333,11.1789474 Z" id="Rectangle-3" transform="translate(5.666667, 12.315789) rotate(45.000000) translate(-5.666667, -12.315789) "></path>
                <path d="M17,11.1789474 L17,13.4526316 C17,13.8712053 16.7693588,14.2105263 16.4848485,14.2105263 L6.18181818,14.2105263 C5.89730786,14.2105263 5.66666667,13.8712053 5.66666667,13.4526316 L5.66666667,11.1789474 C5.66666667,10.7603737 5.89730786,10.4210526 6.18181818,10.4210526 L16.4848485,10.4210526 C16.7693588,10.4210526 17,10.7603737 17,11.1789474 Z" id="Rectangle-3" transform="translate(11.333333, 12.315789) scale(-1, 1) rotate(45.000000) translate(-11.333333, -12.315789) "></path>
                <path d="M15.5833333,6.44210526 L15.5833333,8.71578947 C15.5833333,9.13436318 15.2950318,9.47368421 14.9393939,9.47368421 L2.06060606,9.47368421 C1.70496815,9.47368421 1.41666667,9.13436318 1.41666667,8.71578947 L1.41666667,6.44210526 C1.41666667,6.02353156 1.70496815,5.68421053 2.06060606,5.68421053 L14.9393939,5.68421053 C15.2950318,5.68421053 15.5833333,6.02353156 15.5833333,6.44210526 Z" id="Rectangle-3" transform="translate(8.500000, 7.578947) scale(-1, 1) rotate(90.000000) translate(-8.500000, -7.578947) "></path>
            </g>
        </g>
    </g>
</svg>